<?xml version="1.0" encoding="utf-8"?>
<!-- Generator: Adobe Illustrator 23.0.5, SVG Export Plug-In . SVG Version: 6.00 Build 0)  -->
<svg version="1.1" id="Layer_1" xmlns="http://www.w3.org/2000/svg" xmlns:xlink="http://www.w3.org/1999/xlink" x="0px" y="0px"
	 viewBox="0 0 64 66.7" style="enable-background:new 0 0 64 66.7;" xml:space="preserve">
<style type="text/css">
	.st0{display:none;}
	.st1{display:inline;}
	.st2{fill:none;}
	.st3{font-family:'Arial-BoldMT';}
	.st4{font-size:8.323px;}
	.st5{fill:none;stroke:#000000;stroke-width:2;stroke-miterlimit:10;}
</style>
<g class="st0">
	<rect x="64" y="-188" class="st1" width="20" height="430"/>
	<rect x="-127" y="64" class="st1" width="1023" height="20"/>
	<rect x="-54" y="-205.7" class="st1" width="947.4" height="496.2"/>
</g>
<g>
	<path d="M51.3,1H14.7C10.4,1,7,4.3,7,8.4v49.2c0,4.1,3.4,7.4,7.7,7.4h36.6c4.3,0,7.7-3.3,7.7-7.4V8.4C59,4.3,55.6,1,51.3,1z
		 M14.7,3H20L9.1,13.4v-5C9.1,5.4,11.6,3,14.7,3z M51.3,63H46l10.9-10.4v5.1C56.9,60.6,54.4,63,51.3,63z M56.9,49.7L43.1,63H14.7
		c-3.1,0-5.6-2.4-5.6-5.4V16.3L22.9,3h28.4c3.1,0,5.6,2.4,5.6,5.4V49.7z"/>
	<rect x="9.1" y="30.4" class="st2" width="49.9" height="14.8"/>
	<text transform="matrix(1.0405 0 0 1 9.0811 36.5391)" class="st3 st4">Processing</text>
</g>
<g class="st0">
	<g class="st1">
		<g>
			<path d="M16,27v3.8h3.7V27H22v10h-2.2v-4.2H16V37h-2.3V27H16z"/>
		</g>
		<g>
			<path d="M25.7,28.9H23V27h7.6v1.9H28V37h-2.3V28.9z"/>
		</g>
		<g>
			<path d="M40.1,33.2c0-1.2-0.1-2.7-0.1-4.1l0,0c-0.3,1.3-0.7,2.7-1.1,3.9l-1.2,3.9h-1.8L34.8,33c-0.3-1.2-0.7-2.6-0.9-3.9l0,0
				c-0.1,1.4-0.1,2.9-0.2,4.1L33.5,37h-2.1L32,27h3l1,3.3c0.3,1.2,0.6,2.4,0.8,3.6l0,0c0.3-1.2,0.6-2.5,0.9-3.6L39,27h2.9l0.5,10
				h-2.2L40.1,33.2z"/>
		</g>
		<g>
			<path d="M44,27h2.3v8.1h4V37H44V27L44,27z"/>
		</g>
	</g>
	<g class="st1">
		<g>
			<path d="M49.6,2c3,0,5.4,2.4,5.4,5.4v49.2c0,3-2.4,5.4-5.4,5.4H14.4c-3,0-5.4-2.4-5.4-5.4V7.4c0-3,2.4-5.4,5.4-5.4H49.6 M49.6,0
				H14.4C10.3,0,7,3.3,7,7.4v49.2c0,4.1,3.3,7.4,7.4,7.4h35.2c4.1,0,7.4-3.3,7.4-7.4V7.4C57,3.3,53.7,0,49.6,0L49.6,0z"/>
		</g>
		<g>
			<line class="st5" x1="8.3" y1="8.3" x2="55.7" y2="8.3"/>
			<line class="st5" x1="8.3" y1="55.7" x2="55.7" y2="55.7"/>
		</g>
	</g>
</g>
</svg>
