<svg xmlns="http://www.w3.org/2000/svg" xmlns:xlink="http://www.w3.org/1999/xlink" version="1.1" x="0px" y="0px" viewBox="0 0 32 40" enable-background="new 0 0 32 32" xml:space="preserve"><g display="none"><g display="inline"><g><path fill="#000000" d="M26.082,32H5.917c-1.1,0-2-0.9-2-2V2c0-1.1,0.9-2,2-2h20.165c1.1,0,2,0.9,2,2v28     C28.082,31.1,27.182,32,26.082,32z"/><g><g><defs><polygon id="c" points="21.394,0 28.082,6.689 28.082,32 3.918,32 3.918,0       "/></defs><clipPath><use xlink:href="#c" overflow="visible"/></clipPath></g></g><g><defs><path id="b" d="M26.082,32H5.917c-1.1,0-2-0.9-2-2V2c0-1.1,0.9-2,2-2h20.165c1.1,0,2,0.9,2,2v28       C28.082,31.1,27.182,32,26.082,32z"/></defs><clipPath id="a"><use xlink:href="#b" overflow="visible"/></clipPath><polyline clip-path="url(#a)" fill="#000000" points="21.344,-0.234 28.406,-0.234 28.406,6.828     "/></g><polygon fill="#000000" points="21.021,0 28.083,7.061 28.083,6.354 21.729,0    "/></g><g><g><path fill="#000000" d="M24.229,17.932c0.874,0,1.585,0.711,1.585,1.585v5.733c0,0.874-0.711,1.585-1.585,1.585H7.771      c-0.874,0-1.585-0.711-1.585-1.585v-5.733c0-0.874,0.711-1.585,1.585-1.585H24.229 M24.229,17.432H7.771      c-1.147,0-2.085,0.938-2.085,2.085v5.733c0,1.147,0.938,2.085,2.085,2.085h16.459c1.147,0,2.085-0.938,2.085-2.085v-5.733      C26.314,18.37,25.376,17.432,24.229,17.432L24.229,17.432z"/></g></g></g><g display="inline"><path fill="#000000" d="M12.747,23.08h0.938v0.169c0,0.686-0.125,1.128-0.375,1.329s-0.803,0.301-1.658,0.301    c-0.972,0-1.569-0.158-1.793-0.476c-0.223-0.317-0.335-1.166-0.335-2.546c0-0.812,0.151-1.347,0.454-1.604    c0.304-0.256,0.937-0.384,1.9-0.384c0.702,0,1.171,0.105,1.406,0.315c0.236,0.211,0.354,0.628,0.354,1.254l0.004,0.111h-0.938    v-0.126c0-0.322-0.061-0.528-0.183-0.619c-0.121-0.09-0.398-0.135-0.831-0.135c-0.579,0-0.927,0.071-1.044,0.213    c-0.116,0.142-0.175,0.562-0.175,1.262c0,0.942,0.053,1.5,0.157,1.674c0.104,0.173,0.442,0.26,1.015,0.26    c0.464,0,0.766-0.049,0.903-0.145c0.139-0.097,0.208-0.308,0.208-0.635L12.747,23.08z"/><path fill="#000000" d="M17.926,21.348h-0.912c-0.005-0.046-0.008-0.079-0.008-0.101c-0.021-0.276-0.083-0.45-0.184-0.521    c-0.101-0.07-0.339-0.106-0.714-0.106c-0.442,0-0.731,0.041-0.867,0.123s-0.204,0.254-0.204,0.516c0,0.31,0.056,0.496,0.166,0.559    s0.477,0.111,1.097,0.145c0.732,0.041,1.207,0.146,1.422,0.313c0.216,0.169,0.323,0.519,0.323,1.05    c0,0.653-0.126,1.076-0.379,1.268c-0.252,0.19-0.809,0.286-1.67,0.286c-0.773,0-1.287-0.094-1.541-0.281s-0.381-0.567-0.381-1.14    l-0.003-0.18h0.908l0.004,0.104c0,0.344,0.06,0.554,0.18,0.631c0.121,0.077,0.449,0.115,0.985,0.115    c0.418,0,0.685-0.044,0.8-0.133s0.174-0.295,0.174-0.617c0-0.238-0.044-0.396-0.132-0.474s-0.277-0.126-0.568-0.143l-0.516-0.033    c-0.778-0.045-1.276-0.153-1.493-0.324c-0.216-0.171-0.324-0.537-0.324-1.1c0-0.574,0.131-0.958,0.392-1.148    c0.261-0.191,0.781-0.287,1.562-0.287c0.741,0,1.239,0.088,1.497,0.264c0.257,0.176,0.386,0.518,0.386,1.027V21.348z"/><path fill="#000000" d="M22.347,21.348h-0.912c-0.005-0.046-0.008-0.079-0.008-0.101c-0.021-0.276-0.083-0.45-0.184-0.521    c-0.102-0.07-0.339-0.106-0.714-0.106c-0.442,0-0.731,0.041-0.867,0.123s-0.204,0.254-0.204,0.516c0,0.31,0.056,0.496,0.166,0.559    s0.477,0.111,1.096,0.145c0.733,0.041,1.208,0.146,1.423,0.313c0.215,0.169,0.323,0.519,0.323,1.05    c0,0.653-0.127,1.076-0.379,1.268c-0.253,0.19-0.81,0.286-1.67,0.286c-0.773,0-1.287-0.094-1.541-0.281s-0.381-0.567-0.381-1.14    l-0.003-0.18h0.908l0.004,0.104c0,0.344,0.06,0.554,0.18,0.631c0.121,0.077,0.449,0.115,0.984,0.115    c0.419,0,0.686-0.044,0.801-0.133s0.173-0.295,0.173-0.617c0-0.238-0.044-0.396-0.131-0.474c-0.088-0.078-0.277-0.126-0.568-0.143    l-0.516-0.033c-0.778-0.045-1.276-0.153-1.493-0.324c-0.216-0.171-0.324-0.537-0.324-1.1c0-0.574,0.131-0.958,0.392-1.148    c0.261-0.191,0.781-0.287,1.562-0.287c0.74,0,1.239,0.088,1.497,0.264c0.257,0.176,0.386,0.518,0.386,1.027V21.348z"/></g></g><g display="none"><rect x="-42.167" y="-121.505" display="inline" fill="#000000" width="400.796" height="199.346"/></g><g display="none"><g display="inline"><path d="M12.747,23.08h0.938v0.169c0,0.686-0.125,1.128-0.375,1.329s-0.803,0.301-1.658,0.301c-0.972,0-1.569-0.158-1.793-0.476    c-0.223-0.317-0.335-1.166-0.335-2.546c0-0.812,0.151-1.347,0.454-1.604c0.304-0.256,0.937-0.384,1.9-0.384    c0.702,0,1.171,0.105,1.406,0.315c0.236,0.211,0.354,0.628,0.354,1.254l0.004,0.111h-0.938v-0.126    c0-0.322-0.061-0.528-0.183-0.619c-0.121-0.09-0.398-0.135-0.831-0.135c-0.579,0-0.927,0.071-1.044,0.213    c-0.116,0.142-0.175,0.562-0.175,1.262c0,0.942,0.053,1.5,0.157,1.674c0.104,0.173,0.442,0.26,1.015,0.26    c0.464,0,0.766-0.049,0.903-0.145c0.139-0.097,0.208-0.308,0.208-0.635L12.747,23.08z"/><path d="M17.926,21.348h-0.912c-0.005-0.046-0.008-0.079-0.008-0.101c-0.021-0.276-0.083-0.45-0.184-0.521    c-0.101-0.07-0.339-0.106-0.714-0.106c-0.442,0-0.731,0.041-0.867,0.123s-0.204,0.254-0.204,0.516c0,0.31,0.056,0.496,0.166,0.559    s0.477,0.111,1.097,0.145c0.732,0.041,1.207,0.146,1.422,0.313c0.216,0.169,0.323,0.519,0.323,1.05    c0,0.653-0.126,1.076-0.379,1.268c-0.252,0.19-0.809,0.286-1.67,0.286c-0.773,0-1.287-0.094-1.541-0.281s-0.381-0.567-0.381-1.14    l-0.003-0.18h0.908l0.004,0.104c0,0.344,0.06,0.554,0.18,0.631c0.121,0.077,0.449,0.115,0.985,0.115    c0.418,0,0.685-0.044,0.8-0.133s0.174-0.295,0.174-0.617c0-0.238-0.044-0.396-0.132-0.474s-0.277-0.126-0.568-0.143l-0.516-0.033    c-0.778-0.045-1.276-0.153-1.493-0.324c-0.216-0.171-0.324-0.537-0.324-1.1c0-0.574,0.131-0.958,0.392-1.148    c0.261-0.191,0.781-0.287,1.562-0.287c0.741,0,1.239,0.088,1.497,0.264c0.257,0.176,0.386,0.518,0.386,1.027V21.348z"/><path d="M22.347,21.348h-0.912c-0.005-0.046-0.008-0.079-0.008-0.101c-0.021-0.276-0.083-0.45-0.184-0.521    c-0.102-0.07-0.339-0.106-0.714-0.106c-0.442,0-0.731,0.041-0.867,0.123s-0.204,0.254-0.204,0.516c0,0.31,0.056,0.496,0.166,0.559    s0.477,0.111,1.096,0.145c0.733,0.041,1.208,0.146,1.423,0.313c0.215,0.169,0.323,0.519,0.323,1.05    c0,0.653-0.127,1.076-0.379,1.268c-0.253,0.19-0.81,0.286-1.67,0.286c-0.773,0-1.287-0.094-1.541-0.281s-0.381-0.567-0.381-1.14    l-0.003-0.18h0.908l0.004,0.104c0,0.344,0.06,0.554,0.18,0.631c0.121,0.077,0.449,0.115,0.984,0.115    c0.419,0,0.686-0.044,0.801-0.133s0.173-0.295,0.173-0.617c0-0.238-0.044-0.396-0.131-0.474c-0.088-0.078-0.277-0.126-0.568-0.143    l-0.516-0.033c-0.778-0.045-1.276-0.153-1.493-0.324c-0.216-0.171-0.324-0.537-0.324-1.1c0-0.574,0.131-0.958,0.392-1.148    c0.261-0.191,0.781-0.287,1.562-0.287c0.74,0,1.239,0.088,1.497,0.264c0.257,0.176,0.386,0.518,0.386,1.027V21.348z"/></g><g display="inline"><g><path d="M26.082,1c0.551,0,1,0.449,1,1v28c0,0.551-0.449,1-1,1H5.917c-0.551,0-1-0.449-1-1V2c0-0.551,0.449-1,1-1H26.082      M26.082,0H5.917c-1.1,0-2,0.9-2,2v28c0,1.1,0.9,2,2,2h20.165c1.1,0,2-0.9,2-2V2C28.082,0.9,27.183,0,26.082,0L26.082,0z"/></g><rect x="4.218" y="16.932" width="23.334" height="1"/><g><rect x="4.218" y="26.833" width="23.334" height="1"/></g><line fill="none" stroke="#000000" stroke-miterlimit="10" x1="21.304" y1="0.42" x2="27.588" y2="6.704"/></g></g><g><g><path d="M12.747,23.08h0.938v0.169c0,0.686-0.125,1.128-0.375,1.329s-0.803,0.301-1.658,0.301c-0.972,0-1.569-0.158-1.793-0.476    c-0.223-0.317-0.335-1.166-0.335-2.546c0-0.812,0.151-1.347,0.454-1.604c0.304-0.256,0.937-0.384,1.9-0.384    c0.702,0,1.171,0.105,1.406,0.315c0.236,0.211,0.354,0.628,0.354,1.254l0.004,0.111h-0.938v-0.126    c0-0.322-0.061-0.528-0.183-0.619c-0.121-0.09-0.398-0.135-0.831-0.135c-0.579,0-0.927,0.071-1.044,0.213    c-0.116,0.142-0.175,0.562-0.175,1.262c0,0.942,0.053,1.5,0.157,1.674c0.104,0.173,0.442,0.26,1.015,0.26    c0.464,0,0.766-0.049,0.903-0.145c0.139-0.097,0.208-0.308,0.208-0.635L12.747,23.08z"/><path d="M17.926,21.348h-0.912c-0.005-0.046-0.008-0.079-0.008-0.101c-0.021-0.276-0.083-0.45-0.184-0.521    c-0.101-0.07-0.339-0.106-0.714-0.106c-0.442,0-0.731,0.041-0.867,0.123s-0.204,0.254-0.204,0.516c0,0.31,0.056,0.496,0.166,0.559    s0.477,0.111,1.097,0.145c0.732,0.041,1.207,0.146,1.422,0.313c0.216,0.169,0.323,0.519,0.323,1.05    c0,0.653-0.126,1.076-0.379,1.268c-0.252,0.19-0.809,0.286-1.67,0.286c-0.773,0-1.287-0.094-1.541-0.281s-0.381-0.567-0.381-1.14    l-0.003-0.18h0.908l0.004,0.104c0,0.344,0.06,0.554,0.18,0.631c0.121,0.077,0.449,0.115,0.985,0.115    c0.418,0,0.685-0.044,0.8-0.133s0.174-0.295,0.174-0.617c0-0.238-0.044-0.396-0.132-0.474s-0.277-0.126-0.568-0.143l-0.516-0.033    c-0.778-0.045-1.276-0.153-1.493-0.324c-0.216-0.171-0.324-0.537-0.324-1.1c0-0.574,0.131-0.958,0.392-1.148    c0.261-0.191,0.781-0.287,1.562-0.287c0.741,0,1.239,0.088,1.497,0.264c0.257,0.176,0.386,0.518,0.386,1.027V21.348z"/><path d="M22.347,21.348h-0.912c-0.005-0.046-0.008-0.079-0.008-0.101c-0.021-0.276-0.083-0.45-0.184-0.521    c-0.102-0.07-0.339-0.106-0.714-0.106c-0.442,0-0.731,0.041-0.867,0.123s-0.204,0.254-0.204,0.516c0,0.31,0.056,0.496,0.166,0.559    s0.477,0.111,1.096,0.145c0.733,0.041,1.208,0.146,1.423,0.313c0.215,0.169,0.323,0.519,0.323,1.05    c0,0.653-0.127,1.076-0.379,1.268c-0.253,0.19-0.81,0.286-1.67,0.286c-0.773,0-1.287-0.094-1.541-0.281s-0.381-0.567-0.381-1.14    l-0.003-0.18h0.908l0.004,0.104c0,0.344,0.06,0.554,0.18,0.631c0.121,0.077,0.449,0.115,0.984,0.115    c0.419,0,0.686-0.044,0.801-0.133s0.173-0.295,0.173-0.617c0-0.238-0.044-0.396-0.131-0.474c-0.088-0.078-0.277-0.126-0.568-0.143    l-0.516-0.033c-0.778-0.045-1.276-0.153-1.493-0.324c-0.216-0.171-0.324-0.537-0.324-1.1c0-0.574,0.131-0.958,0.392-1.148    c0.261-0.191,0.781-0.287,1.562-0.287c0.74,0,1.239,0.088,1.497,0.264c0.257,0.176,0.386,0.518,0.386,1.027V21.348z"/></g><path d="M28.081,6.844V2c0-1.1-0.9-2-2-2H5.916c-1.1,0-2,0.9-2,2v28c0,1.1,0.9,2,2,2h20.165c1.1,0,2-0.9,2-2V6.85l0.003-0.003   L28.081,6.844z M27.581,2v4.344L21.737,0.5h4.344C26.908,0.5,27.581,1.173,27.581,2z M5.916,0.5H21.03l6.551,6.551v9.631H4.416V2   C4.416,1.173,5.089,0.5,5.916,0.5z M27.581,17.182v10.4H4.416v-10.4H27.581z M26.081,31.5H5.916c-0.827,0-1.5-0.673-1.5-1.5v-1.917   h23.165V30C27.581,30.827,26.908,31.5,26.081,31.5z"/></g><g display="none"><g display="inline"><polygon points="20.539,2.195 6.118,2.195 6.118,15.73 25.883,15.73 25.883,7.534   "/><path fill="#000000" d="M27.442,6.415l-5.921-5.921h4.345c0,0,1.722,0.12,1.69,1.859C27.524,4.091,27.442,6.415,27.442,6.415z"/><g><path d="M26.082,1c0.551,0,1,0.449,1,1v28c0,0.551-0.449,1-1,1H5.917c-0.551,0-1-0.449-1-1V2c0-0.551,0.449-1,1-1H26.082      M26.082,0H5.917c-1.1,0-2,0.9-2,2v28c0,1.1,0.9,2,2,2h20.165c1.1,0,2-0.9,2-2V2C28.082,0.9,27.183,0,26.082,0L26.082,0z"/></g><rect x="4.667" y="17.667" fill="#000000" stroke="#000000" stroke-miterlimit="10" width="22.75" height="9.667"/><rect x="4.218" y="16.932" width="23.334" height="1"/><g><rect x="4.218" y="26.833" width="23.334" height="1"/></g><line fill="none" stroke="#000000" stroke-miterlimit="10" x1="21.304" y1="0.42" x2="27.588" y2="6.704"/><rect x="6.118" y="27.625" width="19.765" height="2.171"/></g><g display="inline"><path d="M12.747,23.08h0.938v0.169c0,0.686-0.125,1.128-0.375,1.329s-0.803,0.301-1.658,0.301c-0.972,0-1.569-0.158-1.793-0.476    c-0.223-0.317-0.335-1.166-0.335-2.546c0-0.812,0.151-1.347,0.454-1.604c0.304-0.256,0.937-0.384,1.9-0.384    c0.702,0,1.171,0.105,1.406,0.315c0.236,0.211,0.354,0.628,0.354,1.254l0.004,0.111h-0.938v-0.126    c0-0.322-0.061-0.528-0.183-0.619c-0.121-0.09-0.398-0.135-0.831-0.135c-0.579,0-0.927,0.071-1.044,0.213    c-0.116,0.142-0.175,0.562-0.175,1.262c0,0.942,0.053,1.5,0.157,1.674c0.104,0.173,0.442,0.26,1.015,0.26    c0.464,0,0.766-0.049,0.903-0.145c0.139-0.097,0.208-0.308,0.208-0.635L12.747,23.08z"/><path d="M17.926,21.348h-0.912c-0.005-0.046-0.008-0.079-0.008-0.101c-0.021-0.276-0.083-0.45-0.184-0.521    c-0.101-0.07-0.339-0.106-0.714-0.106c-0.442,0-0.731,0.041-0.867,0.123s-0.204,0.254-0.204,0.516c0,0.31,0.056,0.496,0.166,0.559    s0.477,0.111,1.097,0.145c0.732,0.041,1.207,0.146,1.422,0.313c0.216,0.169,0.323,0.519,0.323,1.05    c0,0.653-0.126,1.076-0.379,1.268c-0.252,0.19-0.809,0.286-1.67,0.286c-0.773,0-1.287-0.094-1.541-0.281s-0.381-0.567-0.381-1.14    l-0.003-0.18h0.908l0.004,0.104c0,0.344,0.06,0.554,0.18,0.631c0.121,0.077,0.449,0.115,0.985,0.115    c0.418,0,0.685-0.044,0.8-0.133s0.174-0.295,0.174-0.617c0-0.238-0.044-0.396-0.132-0.474s-0.277-0.126-0.568-0.143l-0.516-0.033    c-0.778-0.045-1.276-0.153-1.493-0.324c-0.216-0.171-0.324-0.537-0.324-1.1c0-0.574,0.131-0.958,0.392-1.148    c0.261-0.191,0.781-0.287,1.562-0.287c0.741,0,1.239,0.088,1.497,0.264c0.257,0.176,0.386,0.518,0.386,1.027V21.348z"/><path d="M22.347,21.348h-0.912c-0.005-0.046-0.008-0.079-0.008-0.101c-0.021-0.276-0.083-0.45-0.184-0.521    c-0.102-0.07-0.339-0.106-0.714-0.106c-0.442,0-0.731,0.041-0.867,0.123s-0.204,0.254-0.204,0.516c0,0.31,0.056,0.496,0.166,0.559    s0.477,0.111,1.096,0.145c0.733,0.041,1.208,0.146,1.423,0.313c0.215,0.169,0.323,0.519,0.323,1.05    c0,0.653-0.127,1.076-0.379,1.268c-0.253,0.19-0.81,0.286-1.67,0.286c-0.773,0-1.287-0.094-1.541-0.281s-0.381-0.567-0.381-1.14    l-0.003-0.18h0.908l0.004,0.104c0,0.344,0.06,0.554,0.18,0.631c0.121,0.077,0.449,0.115,0.984,0.115    c0.419,0,0.686-0.044,0.801-0.133s0.173-0.295,0.173-0.617c0-0.238-0.044-0.396-0.131-0.474c-0.088-0.078-0.277-0.126-0.568-0.143    l-0.516-0.033c-0.778-0.045-1.276-0.153-1.493-0.324c-0.216-0.171-0.324-0.537-0.324-1.1c0-0.574,0.131-0.958,0.392-1.148    c0.261-0.191,0.781-0.287,1.562-0.287c0.74,0,1.239,0.088,1.497,0.264c0.257,0.176,0.386,0.518,0.386,1.027V21.348z"/></g></g><g display="none"><g display="inline"><path fill="#000000" d="M25.308,31.781H6.692c-1.085,0-1.973-0.888-1.973-1.973V2.191c0-1.085,0.888-1.973,1.973-1.973h18.617    c1.085,0,1.973,0.888,1.973,1.973v27.617C27.281,30.894,26.393,31.781,25.308,31.781z"/><g><g><path fill="#000000" d="M27.442,6.415l-5.921-5.921h4.345c0,0,1.722,0.12,1.69,1.859C27.524,4.091,27.442,6.415,27.442,6.415z"/></g><g><path d="M26.083,1c0.551,0,1,0.449,1,1v28c0,0.551-0.449,1-1,1H5.917c-0.551,0-1-0.449-1-1V2c0-0.551,0.449-1,1-1H26.083       M26.083,0H5.917c-1.1,0-2,0.9-2,2v28c0,1.1,0.9,2,2,2h20.165c1.1,0,2-0.9,2-2V2C28.083,0.9,27.182,0,26.083,0L26.083,0z"/></g><g><rect x="4.667" y="17.667" fill="#000000" width="22.75" height="9.667"/><path d="M27.917,27.833H4.167V17.167h23.75V27.833z M5.167,26.833h21.75v-8.666H5.167V26.833z"/></g><g><rect x="4.218" y="16.932" width="23.334" height="1"/></g><g><g><rect x="4.218" y="26.833" width="23.334" height="1"/></g></g><g><rect x="23.947" y="-0.882" transform="matrix(0.7071 -0.7071 0.7071 0.7071 4.6416 18.3298)" width="1" height="8.887"/></g></g></g><g display="inline"><path fill="#000000" d="M12.747,23.08h0.938v0.169c0,0.686-0.125,1.128-0.375,1.329s-0.803,0.301-1.658,0.301    c-0.972,0-1.569-0.158-1.793-0.476c-0.223-0.317-0.335-1.166-0.335-2.546c0-0.812,0.151-1.347,0.454-1.604    c0.304-0.256,0.937-0.384,1.9-0.384c0.702,0,1.171,0.105,1.406,0.315c0.236,0.211,0.354,0.628,0.354,1.254l0.004,0.111h-0.938    v-0.126c0-0.322-0.061-0.528-0.183-0.619c-0.121-0.09-0.398-0.135-0.831-0.135c-0.579,0-0.927,0.071-1.044,0.213    c-0.116,0.142-0.175,0.562-0.175,1.262c0,0.942,0.053,1.5,0.157,1.674c0.104,0.173,0.442,0.26,1.015,0.26    c0.464,0,0.766-0.049,0.903-0.145c0.139-0.097,0.208-0.308,0.208-0.635L12.747,23.08z"/><path fill="#000000" d="M17.926,21.348h-0.912c-0.005-0.046-0.008-0.079-0.008-0.101c-0.021-0.276-0.083-0.45-0.184-0.521    c-0.101-0.07-0.339-0.106-0.714-0.106c-0.442,0-0.731,0.041-0.867,0.123s-0.204,0.254-0.204,0.516c0,0.31,0.056,0.496,0.166,0.559    s0.477,0.111,1.097,0.145c0.732,0.041,1.207,0.146,1.422,0.313c0.216,0.169,0.323,0.519,0.323,1.05    c0,0.653-0.126,1.076-0.379,1.268c-0.252,0.19-0.809,0.286-1.67,0.286c-0.773,0-1.287-0.094-1.541-0.281s-0.381-0.567-0.381-1.14    l-0.003-0.18h0.908l0.004,0.104c0,0.344,0.06,0.554,0.18,0.631c0.121,0.077,0.449,0.115,0.985,0.115    c0.418,0,0.685-0.044,0.8-0.133s0.174-0.295,0.174-0.617c0-0.238-0.044-0.396-0.132-0.474s-0.277-0.126-0.568-0.143l-0.516-0.033    c-0.778-0.045-1.276-0.153-1.493-0.324c-0.216-0.171-0.324-0.537-0.324-1.1c0-0.574,0.131-0.958,0.392-1.148    c0.261-0.191,0.781-0.287,1.562-0.287c0.741,0,1.239,0.088,1.497,0.264c0.257,0.176,0.386,0.518,0.386,1.027V21.348z"/><path fill="#000000" d="M22.347,21.348h-0.912c-0.005-0.046-0.008-0.079-0.008-0.101c-0.021-0.276-0.083-0.45-0.184-0.521    c-0.102-0.07-0.339-0.106-0.714-0.106c-0.442,0-0.731,0.041-0.867,0.123s-0.204,0.254-0.204,0.516c0,0.31,0.056,0.496,0.166,0.559    s0.477,0.111,1.096,0.145c0.733,0.041,1.208,0.146,1.423,0.313c0.215,0.169,0.323,0.519,0.323,1.05    c0,0.653-0.127,1.076-0.379,1.268c-0.253,0.19-0.81,0.286-1.67,0.286c-0.773,0-1.287-0.094-1.541-0.281s-0.381-0.567-0.381-1.14    l-0.003-0.18h0.908l0.004,0.104c0,0.344,0.06,0.554,0.18,0.631c0.121,0.077,0.449,0.115,0.984,0.115    c0.419,0,0.686-0.044,0.801-0.133s0.173-0.295,0.173-0.617c0-0.238-0.044-0.396-0.131-0.474c-0.088-0.078-0.277-0.126-0.568-0.143    l-0.516-0.033c-0.778-0.045-1.276-0.153-1.493-0.324c-0.216-0.171-0.324-0.537-0.324-1.1c0-0.574,0.131-0.958,0.392-1.148    c0.261-0.191,0.781-0.287,1.562-0.287c0.74,0,1.239,0.088,1.497,0.264c0.257,0.176,0.386,0.518,0.386,1.027V21.348z"/></g></g><g display="none"><path display="inline" d="M28.083,2c0-1.1-0.9-2-2-2h-5.081l7.081,7.081V2z"/><path display="inline" d="M28.083,16.932V8.495l-8.358-8.358L19.587,0H5.917c-1.1,0-2,0.9-2,2v14.932H28.083z"/><path display="inline" d="M3.917,27.833V30c0,1.1,0.9,2,2,2h20.165c1.1,0,2-0.9,2-2v-2.167H3.917z"/><path display="inline" d="M3.917,17.932v8.901h24.165v-8.901H3.917z M13.685,23.249c0,0.686-0.125,1.128-0.375,1.329   s-0.803,0.301-1.658,0.301c-0.972,0-1.569-0.158-1.793-0.476c-0.223-0.317-0.335-1.166-0.335-2.546   c0-0.812,0.151-1.347,0.454-1.604c0.304-0.256,0.937-0.384,1.9-0.384c0.702,0,1.171,0.105,1.406,0.315   c0.236,0.211,0.354,0.628,0.354,1.254l0.004,0.111h-0.938v-0.126c0-0.322-0.061-0.528-0.183-0.619   c-0.121-0.09-0.398-0.135-0.831-0.135c-0.579,0-0.927,0.071-1.044,0.213c-0.116,0.142-0.175,0.562-0.175,1.262   c0,0.942,0.053,1.5,0.157,1.674c0.104,0.173,0.442,0.26,1.015,0.26c0.464,0,0.766-0.049,0.903-0.145   c0.139-0.097,0.208-0.308,0.208-0.635l-0.008-0.22h0.938V23.249z M17.666,24.592c-0.252,0.19-0.809,0.286-1.67,0.286   c-0.773,0-1.287-0.094-1.541-0.281s-0.381-0.567-0.381-1.14l-0.003-0.18h0.908l0.004,0.104c0,0.344,0.06,0.554,0.18,0.631   c0.121,0.077,0.449,0.115,0.985,0.115c0.418,0,0.685-0.044,0.8-0.133s0.174-0.295,0.174-0.617c0-0.238-0.044-0.396-0.132-0.474   s-0.277-0.126-0.568-0.143l-0.516-0.033c-0.778-0.045-1.276-0.153-1.493-0.324c-0.216-0.171-0.324-0.537-0.324-1.1   c0-0.574,0.131-0.958,0.392-1.148c0.261-0.191,0.781-0.287,1.562-0.287c0.741,0,1.239,0.088,1.497,0.264   c0.257,0.176,0.386,0.518,0.386,1.027v0.188h-0.912c-0.005-0.046-0.008-0.079-0.008-0.101c-0.021-0.276-0.083-0.45-0.184-0.521   c-0.101-0.07-0.339-0.106-0.714-0.106c-0.442,0-0.731,0.041-0.867,0.123s-0.204,0.254-0.204,0.516c0,0.31,0.056,0.496,0.166,0.559   s0.477,0.111,1.097,0.145c0.732,0.041,1.207,0.146,1.422,0.313c0.216,0.169,0.323,0.519,0.323,1.05   C18.045,23.978,17.919,24.401,17.666,24.592z M22.087,24.592c-0.253,0.19-0.81,0.286-1.67,0.286c-0.773,0-1.287-0.094-1.541-0.281   s-0.381-0.567-0.381-1.14l-0.003-0.18h0.908l0.004,0.104c0,0.344,0.06,0.554,0.18,0.631c0.121,0.077,0.449,0.115,0.984,0.115   c0.419,0,0.686-0.044,0.801-0.133s0.173-0.295,0.173-0.617c0-0.238-0.044-0.396-0.131-0.474c-0.088-0.078-0.277-0.126-0.568-0.143   l-0.516-0.033c-0.778-0.045-1.276-0.153-1.493-0.324c-0.216-0.171-0.324-0.537-0.324-1.1c0-0.574,0.131-0.958,0.392-1.148   c0.261-0.191,0.781-0.287,1.562-0.287c0.74,0,1.239,0.088,1.497,0.264c0.257,0.176,0.386,0.518,0.386,1.027v0.188h-0.912   c-0.005-0.046-0.008-0.079-0.008-0.101c-0.021-0.276-0.083-0.45-0.184-0.521c-0.102-0.07-0.339-0.106-0.714-0.106   c-0.442,0-0.731,0.041-0.867,0.123s-0.204,0.254-0.204,0.516c0,0.31,0.056,0.496,0.166,0.559s0.477,0.111,1.096,0.145   c0.733,0.041,1.208,0.146,1.423,0.313c0.215,0.169,0.323,0.519,0.323,1.05C22.466,23.978,22.339,24.401,22.087,24.592z"/></g><text x="0" y="47" fill="#000000" font-size="5px" font-weight="bold" font-family="'Helvetica Neue', Helvetica, Arial-Unicode, Arial, Sans-serif">Created by Alfredo @ IconsAlfredo.com</text><text x="0" y="52" fill="#000000" font-size="5px" font-weight="bold" font-family="'Helvetica Neue', Helvetica, Arial-Unicode, Arial, Sans-serif">from the Noun Project</text></svg>