<svg xmlns="http://www.w3.org/2000/svg" xmlns:xlink="http://www.w3.org/1999/xlink" version="1.1" x="0px" y="0px" viewBox="0 0 54 67.5" enable-background="new 0 0 54 54" xml:space="preserve"><g><path d="M41.82,0H12.18C5.46,0,0,5.46,0,12.18v29.65C0,48.54,5.46,54,12.18,54h29.65C48.54,54,54,48.54,54,41.82V12.18   C54,5.46,48.54,0,41.82,0z M52,41.82C52,47.44,47.44,52,41.82,52H12.18C6.56,52,2,47.44,2,41.82V12.18C2,6.56,6.56,2,12.18,2h29.65   C47.44,2,52,6.56,52,12.18V41.82z"/><path d="M19.84,12L11.6,40h3.12l2.64-9.04h8.32L28.44,40h3.24l-8.52-28H19.84z M18.12,28l3.36-11.36L24.96,28H18.12z"/><path d="M36.86,11.6c-0.44,0-0.83,0.17-1.16,0.5c-0.33,0.33-0.5,0.71-0.5,1.14s0.17,0.81,0.5,1.14c0.33,0.33,0.72,0.5,1.16,0.5   c0.44,0,0.82-0.16,1.14-0.48c0.32-0.32,0.48-0.71,0.48-1.16S38.32,12.4,38,12.08C37.68,11.76,37.3,11.6,36.86,11.6z"/><rect x="35.36" y="19.96" width="2.88" height="20.04"/></g><text x="0" y="69" fill="#000000" font-size="5px" font-weight="bold" font-family="'Helvetica Neue', Helvetica, Arial-Unicode, Arial, Sans-serif">Created by Ben Davis</text><text x="0" y="74" fill="#000000" font-size="5px" font-weight="bold" font-family="'Helvetica Neue', Helvetica, Arial-Unicode, Arial, Sans-serif">from the Noun Project</text></svg>