<svg xmlns="http://www.w3.org/2000/svg" xmlns:xlink="http://www.w3.org/1999/xlink" version="1.1" x="0px" y="0px" viewBox="0 0 100 125" style="enable-background:new 0 0 100 100;" xml:space="preserve"><path d="M98.3,64.3L87.5,29c-3.6-8.8-15.5-12-24.1-7.4c-2.7,1.4-4.9,3.6-6.7,6.3H43.2c-1.6-2.6-4-4.8-6.7-6.3  C27.8,17,16,20.2,12.4,29L1.7,64.3c-1.8,6.6,0,12.5,5.8,15.1c5.8,2.6,10.8-0.1,15.1-5.8l6.1-8.1c1.5,0.9,3.3,1.5,5.2,1.5  c5.5,0,10-4.5,10-10c0-0.2,0-0.3,0-0.5h12c0,0.2,0,0.3,0,0.5c0,5.5,4.5,10,10,10c1.9,0,3.7-0.5,5.2-1.5l6.1,8.1  c4.4,5.7,9.3,8.3,15.1,5.8C98.3,76.8,100.1,70.9,98.3,64.3z M24.9,46v-5.3h-5.3v-5.3h5.3v-5.3h5.3v5.3h5.3v5.3h-5.3V46H24.9z   M34,62.1c-2.8,0-5-2.3-5-5c0-2.8,2.3-5,5-5c2.8,0,5,2.3,5,5C39,59.8,36.8,62.1,34,62.1z M72.5,29.6c1.5,0,2.8,1.3,2.8,2.8  s-1.3,2.8-2.8,2.8c-1.5,0-2.8-1.3-2.8-2.8S71,29.6,72.5,29.6z M67.3,35.6c1.5,0,2.8,1.3,2.8,2.8c0,1.5-1.3,2.8-2.8,2.8  c-1.5,0-2.8-1.3-2.8-2.8C64.5,36.9,65.8,35.6,67.3,35.6z M66,62.1c-2.8,0-5-2.3-5-5c0-2.8,2.3-5,5-5c2.8,0,5,2.3,5,5  C71,59.8,68.8,62.1,66,62.1z M73.4,46.4c-1.5,0-2.8-1.3-2.8-2.8c0-1.5,1.3-2.8,2.8-2.8s2.8,1.3,2.8,2.8  C76.2,45.2,74.9,46.4,73.4,46.4z M78.6,40.4c-1.5,0-2.8-1.3-2.8-2.8c0-1.5,1.3-2.8,2.8-2.8c1.5,0,2.8,1.3,2.8,2.8  C81.4,39.1,80.1,40.4,78.6,40.4z"/><text x="0" y="115" fill="#000000" font-size="5px" font-weight="bold" font-family="'Helvetica Neue', Helvetica, Arial-Unicode, Arial, Sans-serif">Created by Mike Rowe</text><text x="0" y="120" fill="#000000" font-size="5px" font-weight="bold" font-family="'Helvetica Neue', Helvetica, Arial-Unicode, Arial, Sans-serif">from the Noun Project</text></svg>