<svg xmlns="http://www.w3.org/2000/svg" xmlns:xlink="http://www.w3.org/1999/xlink" version="1.1" x="0px" y="0px" viewBox="0 0 200.766 252.2625" enable-background="new 0 0 200.766 201.81" xml:space="preserve"><g display="none"><g display="inline"><circle fill="#000000" stroke="#999999" stroke-width="1.0429" stroke-miterlimit="10" cx="99.542" cy="97.666" r="92.431"/><path fill="#000000" stroke="#999999" stroke-width="1.0429" stroke-miterlimit="10" d="M165.508,175.625H33.576    c-6.885,0-12.516-5.633-12.516-12.514V31.179c0-6.884,5.631-12.515,12.516-12.515h131.932c6.885,0,12.516,5.631,12.516,12.515    v131.933C178.023,169.992,172.393,175.625,165.508,175.625z"/><path fill="#000000" stroke="#999999" stroke-width="1.0429" stroke-miterlimit="10" d="M154.051,190.096H45.326    c-6.885,0-12.518-5.631-12.518-12.516V17.75c0-6.883,5.633-12.514,12.518-12.514h108.725c6.883,0,12.516,5.631,12.516,12.514    v159.83C166.566,184.465,160.934,190.096,154.051,190.096z"/><path fill="#000000" stroke="#999999" stroke-width="1.0429" stroke-miterlimit="10" d="M179.457,164.416H19.627    c-6.885,0-12.516-5.633-12.516-12.517V43.172c0-6.883,5.631-12.514,12.516-12.514h159.83c6.885,0,12.516,5.631,12.516,12.514    v108.728C191.973,158.783,186.342,164.416,179.457,164.416z"/><circle fill="#000000" stroke="#999999" stroke-width="1.0429" stroke-miterlimit="10" cx="99.688" cy="97.145" r="41.065"/><rect x="-0.043" y="-2.717" fill="#000000" stroke="#999999" stroke-width="1.0429" stroke-miterlimit="10" width="199.723" height="200.767"/><line fill="#000000" stroke="#999999" stroke-width="1.0429" stroke-miterlimit="10" x1="-0.043" y1="-2.717" x2="199.68" y2="198.05"/><line fill="#000000" stroke="#999999" stroke-width="1.0429" stroke-miterlimit="10" x1="-0.043" y1="198.05" x2="199.68" y2="-2.717"/><line fill="#000000" stroke="#999999" stroke-width="1.0429" stroke-miterlimit="10" x1="70.615" y1="-2.717" x2="70.355" y2="198.05"/><line fill="#000000" stroke="#999999" stroke-width="1.0429" stroke-miterlimit="10" x1="99.949" y1="-2.717" x2="99.688" y2="198.05"/><line fill="#000000" stroke="#999999" stroke-width="1.0429" stroke-miterlimit="10" x1="129.098" y1="-2.717" x2="128.838" y2="198.05"/><line fill="#000000" stroke="#999999" stroke-width="1.0429" stroke-miterlimit="10" x1="-0.043" y1="68.203" x2="199.68" y2="67.682"/><line fill="#000000" stroke="#999999" stroke-width="1.0429" stroke-miterlimit="10" x1="-0.043" y1="97.405" x2="199.68" y2="96.885"/><line fill="#000000" stroke="#999999" stroke-width="1.0429" stroke-miterlimit="10" x1="-0.32" y1="127.243" x2="199.404" y2="126.721"/></g></g><g><g><g><path fill="#000000" d="M171.766,189h-142c-9.374,0-17-7.626-17-17V30c0-9.374,7.626-17,17-17h142c9.374,0,17,7.626,17,17v142     C188.766,181.374,181.14,189,171.766,189z M29.766,23c-3.859,0-7,3.141-7,7v142c0,3.859,3.141,7,7,7h142c3.859,0,7-3.141,7-7V30     c0-3.859-3.141-7-7-7H29.766z"/></g><g><path fill="#000000" d="M66.104,63.948c4.168-0.695,9.624-1.29,16.569-1.29c8.532,0,14.782,1.984,18.751,5.556     c3.572,3.175,5.854,8.036,5.854,13.989c0,6.052-1.785,10.814-5.159,14.286c-4.663,4.861-12.005,7.342-20.438,7.342     c-2.579,0-4.961-0.099-6.944-0.595v26.787h-8.633V63.948z M74.736,96.192c1.885,0.495,4.266,0.694,7.143,0.694     c10.418,0,16.768-5.159,16.768-14.188c0-8.93-6.35-13.195-15.775-13.195c-3.77,0-6.647,0.298-8.135,0.694V96.192z"/><path fill="#000000" d="M117.002,96.985c0-5.655-0.1-10.517-0.397-14.98h7.64l0.396,9.524h0.298     c2.183-6.449,7.54-10.517,13.394-10.517c0.893,0,1.588,0.099,2.381,0.198v8.234c-0.893-0.198-1.785-0.198-2.977-0.198     c-6.15,0-10.516,4.563-11.707,11.111c-0.198,1.191-0.297,2.679-0.297,4.068v25.597h-8.73V96.985z"/></g></g></g><text x="0" y="216.81" fill="#000000" font-size="5px" font-weight="bold" font-family="'Helvetica Neue', Helvetica, Arial-Unicode, Arial, Sans-serif">Created by Alba de la Herrán</text><text x="0" y="221.81" fill="#000000" font-size="5px" font-weight="bold" font-family="'Helvetica Neue', Helvetica, Arial-Unicode, Arial, Sans-serif">from the Noun Project</text></svg>